/* XPM */
static char * lives32_xpm[] = {
"32 32 784 2",
"  	c #F7F7F7",
". 	c #6C6C79",
"+ 	c #18182E",
"@ 	c #010119",
"# 	c #000018",
"$ 	c #000019",
"% 	c #00011B",
"& 	c #01001E",
"* 	c #00011F",
"= 	c #000021",
"- 	c #010122",
"; 	c #000122",
"> 	c #010023",
", 	c #19182E",
"' 	c #F6F6F6",
") 	c #F7F6F6",
"! 	c #19192D",
"~ 	c #000017",
"{ 	c #00001E",
"] 	c #010022",
"^ 	c #010125",
"/ 	c #010127",
"( 	c #01002B",
"_ 	c #01012C",
": 	c #01002D",
"< 	c #00002F",
"[ 	c #010030",
"} 	c #000031",
"| 	c #000131",
"1 	c #010027",
"2 	c #00011E",
"3 	c #01021C",
"4 	c #18192D",
"5 	c #00001A",
"6 	c #000123",
"7 	c #010026",
"8 	c #01002A",
"9 	c #01002E",
"0 	c #000034",
"a 	c #000037",
"b 	c #000038",
"c 	c #00003B",
"d 	c #01013D",
"e 	c #00003C",
"f 	c #01013F",
"g 	c #03043F",
"h 	c #050541",
"i 	c #04043E",
"j 	c #02023B",
"k 	c #010039",
"l 	c #000137",
"m 	c #000135",
"n 	c #010232",
"o 	c #030330",
"p 	c #05052E",
"q 	c #06062B",
"r 	c #030426",
"s 	c #020220",
"t 	c #01001A",
"u 	c #6D6D7A",
"v 	c #19182F",
"w 	c #020225",
"x 	c #01012A",
"y 	c #01012F",
"z 	c #000033",
"A 	c #010237",
"B 	c #01023B",
"C 	c #02023E",
"D 	c #010141",
"E 	c #000145",
"F 	c #010146",
"G 	c #010249",
"H 	c #01014A",
"I 	c #03034C",
"J 	c #1F2063",
"K 	c #22226E",
"L 	c #21206D",
"M 	c #1E1F6A",
"N 	c #1E1D68",
"O 	c #1A1A64",
"P 	c #1C1C65",
"Q 	c #1E1F64",
"R 	c #27265F",
"S 	c #0A0B3E",
"T 	c #10113F",
"U 	c #0C0C36",
"V 	c #04052D",
"W 	c #010225",
"X 	c #030422",
"Y 	c #1F1F35",
"Z 	c #050527",
"` 	c #09082F",
" .	c #080935",
"..	c #050537",
"+.	c #02023A",
"@.	c #030340",
"#.	c #060645",
"$.	c #09094B",
"%.	c #07074E",
"&.	c #04044F",
"*.	c #030351",
"=.	c #040455",
"-.	c #050457",
";.	c #020357",
">.	c #020258",
",.	c #141462",
"'.	c #9B9BCF",
").	c #E1E2F0",
"!.	c #E1E2F1",
"~.	c #E1E1F0",
"{.	c #E0E0EF",
"].	c #FAF7F9",
"^.	c #C0BDDF",
"/.	c #C5C5E2",
"(.	c #81B8A8",
"_.	c #36366D",
":.	c #262658",
"<.	c #1A1A4C",
"[.	c #08093A",
"}.	c #040331",
"|.	c #090930",
"1.	c #121333",
"2.	c #0B0B34",
"3.	c #131542",
"4.	c #161649",
"5.	c #0C0D47",
"6.	c #060648",
"7.	c #06064D",
"8.	c #0F0F58",
"9.	c #16155F",
"0.	c #0A095C",
"a.	c #000058",
"b.	c #01025C",
"c.	c #05055F",
"d.	c #0F0E6A",
"e.	c #171473",
"f.	c #201C7C",
"g.	c #4C4496",
"h.	c #BBADE3",
"i.	c #9785D1",
"j.	c #9390DA",
"k.	c #8896DC",
"l.	c #77A0D9",
"m.	c #ACDFC9",
"n.	c #B2CE7C",
"o.	c #876D71",
"p.	c #EEEBF9",
"q.	c #3C3D80",
"r.	c #53547F",
"s.	c #403F6E",
"t.	c #0D0E47",
"u.	c #04043C",
"v.	c #0B0C3C",
"w.	c #212045",
"x.	c #101042",
"y.	c #252656",
"z.	c #353567",
"A.	c #1C1D5A",
"B.	c #090853",
"C.	c #0A0A59",
"D.	c #181765",
"E.	c #66669A",
"F.	c #DDDEE8",
"G.	c #DAD9E8",
"H.	c #B7AADF",
"I.	c #9A7FDC",
"J.	c #A389E1",
"K.	c #8D8AE0",
"L.	c #768DDD",
"M.	c #6798E0",
"N.	c #76BCF3",
"O.	c #61BEE3",
"P.	c #6ACDBE",
"Q.	c #8ADB9A",
"R.	c #C5E166",
"S.	c #FEF063",
"T.	c #D6A55F",
"U.	c #B26C8C",
"V.	c #F1F2F9",
"W.	c #3D3D85",
"X.	c #5B5C8B",
"Y.	c #48497B",
"Z.	c #0D0D51",
"`.	c #040445",
" +	c #0A0A43",
".+	c #2C2C56",
"++	c #0E0F48",
"@+	c #3A3B6C",
"#+	c #63638A",
"$+	c #393975",
"%+	c #09095D",
"&+	c #090963",
"*+	c #212175",
"=+	c #FFFFFF",
"-+	c #F2F8FA",
";+	c #84C8EC",
">+	c #3DA1E2",
",+	c #389DCA",
"'+	c #54A6A3",
")+	c #70CE95",
"!+	c #9CD97F",
"~+	c #CDDD70",
"{+	c #ECE25C",
"]+	c #E8D558",
"^+	c #E3A660",
"/+	c #EB7164",
"(+	c #B790BC",
"_+	c #7D7DBB",
":+	c #1F2075",
"<+	c #21216F",
"[+	c #181866",
"}+	c #05044F",
"|+	c #0A094B",
"1+	c #202055",
"2+	c #07074C",
"3+	c #282866",
"4+	c #4D4D82",
"5+	c #2A2A73",
"6+	c #080866",
"7+	c #08086B",
"8+	c #424290",
"9+	c #EFF9F3",
"0+	c #8DD8A1",
"a+	c #70AE66",
"b+	c #B0BE4D",
"c+	c #C5C243",
"d+	c #CDC946",
"e+	c #C3A44D",
"f+	c #BF7643",
"g+	c #BC694B",
"h+	c #BD2764",
"i+	c #171E7F",
"j+	c #101174",
"k+	c #08086F",
"l+	c #07076B",
"m+	c #040564",
"n+	c #05065E",
"o+	c #0B0B5B",
"p+	c #111259",
"q+	c #181856",
"r+	c #02024F",
"s+	c #07075A",
"t+	c #0F0F66",
"u+	c #0B0C6A",
"v+	c #0D0D70",
"w+	c #100F74",
"x+	c #414194",
"y+	c #FEFEFC",
"z+	c #D8D7EA",
"A+	c #FAFAFB",
"B+	c #F1F2F6",
"C+	c #FDFCFB",
"D+	c #F8F5E3",
"E+	c #D2CE76",
"F+	c #CCCA4F",
"G+	c #CAA84F",
"H+	c #CE8149",
"I+	c #C17D44",
"J+	c #BE2A61",
"K+	c #7A1466",
"L+	c #010378",
"M+	c #080977",
"N+	c #101077",
"O+	c #111075",
"P+	c #0B0B6F",
"Q+	c #0B0B6A",
"R+	c #161669",
"S+	c #222269",
"T+	c #242364",
"U+	c #000155",
"V+	c #01005D",
"W+	c #040466",
"X+	c #0D0C70",
"Y+	c #18187A",
"Z+	c #1E1E7F",
"`+	c #5556A0",
" @	c #5959AB",
".@	c #8F8FC5",
"+@	c #A8A8D2",
"@@	c #C9C9E3",
"#@	c #252592",
"$@	c #7B7ABB",
"%@	c #4848A3",
"&@	c #F8F8FD",
"*@	c #F9EFE1",
"=@	c #DAA472",
"-@	c #BA7947",
";@	c #BB4057",
">@	c #BD3064",
",@	c #300775",
"'@	c #04057C",
")@	c #0F0F7D",
"!@	c #201E82",
"~@	c #242481",
"{@	c #151579",
"]@	c #0F0F71",
"^@	c #1F1F74",
"/@	c #484885",
"(@	c #45457D",
"_@	c #00005A",
":@	c #010163",
"<@	c #04046C",
"[@	c #0F0E74",
"}@	c #292A84",
"|@	c #4A4A96",
"1@	c #6E6DAE",
"2@	c #6D6DB5",
"3@	c #6160AF",
"4@	c #AEAFD6",
"5@	c #B2B2D6",
"6@	c #323298",
"7@	c #2F2F96",
"8@	c #9494C9",
"9@	c #323197",
"0@	c #1E1E8E",
"a@	c #9392C8",
"b@	c #EED9D4",
"c@	c #C22A6B",
"d@	c #B82467",
"e@	c #000082",
"f@	c #040480",
"g@	c #111183",
"h@	c #373890",
"i@	c #57569C",
"j@	c #2E2E87",
"k@	c #0E0D74",
"l@	c #1E1E79",
"m@	c #595992",
"n@	c #55558B",
"o@	c #000160",
"p@	c #010068",
"q@	c #02036E",
"r@	c #0A0A74",
"s@	c #33328B",
"t@	c #6464A3",
"u@	c #7D7DB6",
"v@	c #E2E2EF",
"w@	c #333398",
"x@	c #6C6DB5",
"y@	c #030281",
"z@	c #6868B3",
"A@	c #5A5AAC",
"B@	c #FDFDFC",
"C@	c #4C4CA5",
"D@	c #CBCBE4",
"E@	c #F7EBF1",
"F@	c #690B6D",
"G@	c #000086",
"H@	c #030383",
"I@	c #0C0B84",
"J@	c #383992",
"K@	c #6060A1",
"L@	c #33338B",
"M@	c #060774",
"N@	c #0B0B71",
"O@	c #27267B",
"P@	c #252573",
"Q@	c #010063",
"R@	c #00016A",
"S@	c #01016F",
"T@	c #040474",
"U@	c #15157F",
"V@	c #33328F",
"W@	c #6565AF",
"X@	c #EDEDF4",
"Y@	c #1C1B8D",
"Z@	c #8181BF",
"`@	c #B1B1D7",
" #	c #000079",
".#	c #070683",
"+#	c #C3C3DF",
"@#	c #291992",
"##	c #010089",
"$#	c #020286",
"%#	c #060683",
"&#	c #151587",
"*#	c #27288B",
"=#	c #13137E",
"-#	c #040473",
";#	c #01026F",
">#	c #03036C",
",#	c #030364",
"'#	c #010165",
")#	c #00006C",
"!#	c #00006F",
"~#	c #000174",
"{#	c #020279",
"]#	c #04037D",
"^#	c #5252A8",
"/#	c #8E8DC5",
"(#	c #37369A",
"_#	c #B1B0D6",
":#	c #343499",
"<#	c #F9F8F9",
"[#	c #9FA0CE",
"}#	c #F0EFF6",
"|#	c #A7A8D2",
"1#	c #7676BA",
"2#	c #DADAEE",
"3#	c #00008B",
"4#	c #01008C",
"5#	c #020289",
"6#	c #070786",
"7#	c #0F1086",
"8#	c #141484",
"9#	c #0E0E7D",
"0#	c #060676",
"a#	c #020270",
"b#	c #01026C",
"c#	c #030267",
"d#	c #010166",
"e#	c #00006D",
"f#	c #000070",
"g#	c #000075",
"h#	c #000179",
"i#	c #00007C",
"j#	c #5655AB",
"k#	c #797ABC",
"l#	c #E0E0ED",
"m#	c #7272B8",
"n#	c #9292C8",
"o#	c #2E2D96",
"p#	c #3E3D9E",
"q#	c #7877BB",
"r#	c #D1D0E7",
"s#	c #5B5BAC",
"t#	c #8584C1",
"u#	c #CCCCE9",
"v#	c #0D0C99",
"w#	c #000192",
"x#	c #03028A",
"y#	c #0B0B89",
"z#	c #1A1A8B",
"A#	c #2A2A8E",
"B#	c #202087",
"C#	c #0B0B79",
"D#	c #050673",
"E#	c #0A0971",
"F#	c #0A0A6C",
"G#	c #5353A9",
"H#	c #9C9ACB",
"I#	c #FFFFFE",
"J#	c #F2F3F7",
"K#	c #D4D5E8",
"L#	c #8383C0",
"M#	c #212090",
"N#	c #D3D2E8",
"O#	c #E6E6F3",
"P#	c #4F4FB9",
"Q#	c #000096",
"R#	c #010195",
"S#	c #0B0A88",
"T#	c #25258F",
"U#	c #5757A1",
"V#	c #494898",
"W#	c #13147D",
"X#	c #0C0C76",
"Y#	c #151677",
"Z#	c #181973",
"`#	c #000074",
" $	c #000178",
".$	c #00007B",
"+$	c #4B4BA4",
"@$	c #F9F9FB",
"#$	c #D9D9EB",
"$$	c #6B6BC3",
"%$	c #1413A1",
"&$	c #0F0F9F",
"*$	c #050598",
"=$	c #010193",
"-$	c #00008F",
";$	c #020188",
">$	c #050685",
",$	c #1D1D8B",
"'$	c #53549F",
")$	c #474796",
"!$	c #10117B",
"~$	c #0F0F77",
"{$	c #25247D",
"]$	c #3B3B84",
"^$	c #00016E",
"/$	c #000072",
"($	c #000076",
"_$	c #00007A",
":$	c #3B3B9A",
"<$	c #F7F8F9",
"[$	c #6F6FC2",
"}$	c #07079A",
"|$	c #2324A3",
"1$	c #3434A7",
"2$	c #1E1E9E",
"3$	c #070795",
"4$	c #00018F",
"5$	c #010088",
"6$	c #010085",
"7$	c #020182",
"8$	c #070881",
"9$	c #191985",
"0$	c #060775",
"a$	c #0C0D74",
"b$	c #323383",
"c$	c #626298",
"d$	c #010167",
"e$	c #000078",
"f$	c #09097F",
"g$	c #7879C1",
"h$	c #00008E",
"i$	c #020392",
"j$	c #0E0D96",
"k$	c #3636A4",
"l$	c #6262B1",
"m$	c #3D3DA4",
"n$	c #090991",
"o$	c #02018C",
"p$	c #000085",
"q$	c #010082",
"r$	c #020180",
"s$	c #04057D",
"t$	c #09097B",
"u$	c #080974",
"v$	c #080970",
"w$	c #1E1D76",
"x$	c #434484",
"y$	c #000063",
"z$	c #01006A",
"A$	c #000077",
"B$	c #5C5CA8",
"C$	c #E5E5EF",
"D$	c #D8D8EB",
"E$	c #7676C4",
"F$	c #02008B",
"G$	c #02018D",
"H$	c #070790",
"I$	c #252599",
"J$	c #4D4DA8",
"K$	c #2D2D9B",
"L$	c #06058B",
"M$	c #000083",
"N$	c #01007F",
"O$	c #03027E",
"P$	c #09097D",
"Q$	c #13147E",
"R$	c #1A197F",
"S$	c #121278",
"T$	c #050665",
"U$	c #090A5F",
"V$	c #00015C",
"W$	c #000171",
"X$	c #1415A0",
"Y$	c #2F2FB3",
"Z$	c #2D2EB3",
"`$	c #0C0DA2",
" %	c #000081",
".%	c #5151C5",
"+%	c #5050C0",
"@%	c #0000A4",
"#%	c #0303A3",
"$%	c #1C1BB3",
"%%	c #1414B0",
"&%	c #0506B0",
"*%	c #1918B1",
"=%	c #1718B2",
"-%	c #0303AE",
";%	c #0C0DAB",
">%	c #0F10AD",
",%	c #0E0EAB",
"'%	c #0D0BA9",
")%	c #0909A5",
"!%	c #08079F",
"~%	c #1515A4",
"{%	c #3636B5",
"]%	c #1D1CAD",
"^%	c #10119A",
"/%	c #02026A",
"(%	c #000055",
"_%	c #01014E",
":%	c #000056",
"<%	c #00007F",
"[%	c #9D9ECE",
"}%	c #FFFFFB",
"|%	c #ECEDEB",
"1%	c #5C5BAC",
"2%	c #010181",
"3%	c #0000AD",
"4%	c #7070BA",
"5%	c #4747A6",
"6%	c #0000B1",
"7%	c #6C6DC5",
"8%	c #DBDBD9",
"9%	c #1212AF",
"0%	c #FFFFF6",
"a%	c #FFFFFD",
"b%	c #4F50A6",
"c%	c #FFFFFA",
"d%	c #F9FAF1",
"e%	c #A4A4CD",
"f%	c #4141D2",
"g%	c #F4F4F6",
"h%	c #EDEDE7",
"i%	c #8383C4",
"j%	c #01014D",
"k%	c #000047",
"l%	c #010064",
"m%	c #0000A7",
"n%	c #FCFCFB",
"o%	c #1818A1",
"p%	c #0000A0",
"q%	c #02039B",
"r%	c #F0F0F6",
"s%	c #F6F5FB",
"t%	c #4948B2",
"u%	c #000098",
"v%	c #0000AA",
"w%	c #ECECF5",
"x%	c #4847BA",
"y%	c #0809D3",
"z%	c #EDEDF3",
"A%	c #3736A0",
"B%	c #0000C2",
"C%	c #BABBE4",
"D%	c #6969B2",
"E%	c #9392CB",
"F%	c #9D9DCD",
"G%	c #4444A9",
"H%	c #D4D3EE",
"I%	c #7678BA",
"J%	c #0000C1",
"K%	c #ADADD4",
"L%	c #2E30A0",
"M%	c #010069",
"N%	c #000046",
"O%	c #00003F",
"P%	c #000045",
"Q%	c #010055",
"R%	c #2727A9",
"S%	c #F3F2ED",
"T%	c #0000A5",
"U%	c #2121AB",
"V%	c #3C3BB4",
"W%	c #0100A4",
"X%	c #0A0AA0",
"Y%	c #FFFFFC",
"Z%	c #13139F",
"`%	c #000080",
" &	c #000097",
".&	c #B3B3E0",
"+&	c #8786CC",
"@&	c #A6A7E7",
"#&	c #8C8CB9",
"$&	c #0101A6",
"%&	c #F1F0F7",
"&&	c #FDFDF8",
"*&	c #D1D1DE",
"=&	c #0000B6",
"-&	c #0000D0",
";&	c #6565C4",
">&	c #F4F4EF",
",&	c #8C8CCB",
"'&	c #01004E",
")&	c #000036",
"!&	c #070787",
"~&	c #7778CF",
"{&	c #BABBD4",
"]&	c #1312C0",
"^&	c #A7A7E0",
"/&	c #8180C1",
"(&	c #0808B8",
"_&	c #3A3AC1",
":&	c #EAEAE9",
"<&	c #0808B1",
"[&	c #010194",
"}&	c #000089",
"|&	c #7878CF",
"1&	c #E9E9F1",
"2&	c #DEDEE2",
"3&	c #0202A0",
"4&	c #2524B5",
"5&	c #F5F5F0",
"6&	c #3636A7",
"7&	c #5354A3",
"8&	c #EEEEF3",
"9&	c #5D5DBA",
"0&	c #8180CB",
"a&	c #0000C3",
"b&	c #4E4DB8",
"c&	c #FFFFF7",
"d&	c #040390",
"e&	c #030245",
"f&	c #00002C",
"g&	c #9C9DD0",
"h&	c #EDEEEA",
"i&	c #ECECEB",
"j&	c #F5F6ED",
"k&	c #F6F6EE",
"l&	c #3E3E9E",
"m&	c #F8F8EF",
"n&	c #F2F2EE",
"o&	c #FFFFF2",
"p&	c #3637A5",
"q&	c #3A3AB7",
"r&	c #FFFFF4",
"s&	c #2B2B9E",
"t&	c #00008A",
"u&	c #09099B",
"v&	c #FBFAF3",
"w&	c #FCFCF7",
"x&	c #FFFFF9",
"y&	c #DDDDE1",
"z&	c #A4A3D3",
"A&	c #F9F9F4",
"B&	c #F2F2F9",
"C&	c #FCFCF5",
"D&	c #6566A8",
"E&	c #080781",
"F&	c #06063A",
"G&	c #01022D",
"H&	c #010123",
"I&	c #000039",
"J&	c #000088",
"K&	c #00008D",
"L&	c #000090",
"M&	c #000093",
"N&	c #000094",
"O&	c #000092",
"P&	c #000087",
"Q&	c #000061",
"R&	c #000187",
"S&	c #00005D",
"T&	c #01017A",
"U&	c #020293",
"V&	c #050594",
"W&	c #050592",
"X&	c #030391",
"Y&	c #010096",
"Z&	c #050595",
"`&	c #1E1E97",
" *	c #0D0D90",
".*	c #1C1C8C",
"+*	c #1F1F52",
"@*	c #0B0A31",
"#*	c #000027",
"$*	c #000133",
"%*	c #00013C",
"&*	c #01003F",
"**	c #010142",
"=*	c #000146",
"-*	c #01004A",
";*	c #01014B",
">*	c #00014D",
",*	c #00004F",
"'*	c #00014A",
")*	c #01004C",
"!*	c #01004B",
"~*	c #010149",
"{*	c #000141",
"]*	c #030341",
"^*	c #090A47",
"/*	c #262654",
"(*	c #5A5A72",
"_*	c #4A495F",
":*	c #0F102B",
"<*	c #1A1A31",
"[*	c #00013B",
"}*	c #01003D",
"|*	c #01003C",
"1*	c #01013E",
"2*	c #01003E",
"3*	c #000138",
"4*	c #02022B",
"5*	c #06062A",
"6*	c #1D1D3A",
"7*	c #515162",
"8*	c #414151",
"9*	c #0A0B21",
"0*	c #F7F6F7",
"a*	c #02021D",
"b*	c #06071E",
"c*	c #121428",
"d*	c #0C0E23",
"e*	c #1A1A2F",
"f*	c #F7F7F6",
"g*	c #6D6C79",
"h*	c #010118",
"i*	c #6C6C7A",
"    . + @ # # $ $ % & * = - ; > > ; - = * & % $ $ # # @ , . '   ",
") ! ~ # # % { ] ^ / ( _ : < [ } | [ [ : _ ( 1 ^ ] 2 3 @ # ~ 4   ",
". ~ 5 2 6 7 8 9 | 0 a b c d e f g h i j k l m n o p q r s t # u ",
"v s w x y z A B C D E F G H H I J K L M N O P Q R S T U V W X Y ",
"Z `  ...+.@.#.$.%.&.*.=.-.;.>.,.'.).!.~.{.].^./.(._.:.<.[.}.|.1.",
"2.3.4.5.6.7.8.9.0.a.b.c.d.e.f.g.h.i.j.k.l.m.n.o.p.q.r.s.t.u.v.w.",
"x.y.z.A.B.C.D.E.F.G.H.I.J.K.L.M.N.O.P.Q.R.S.T.U.V.W.X.Y.Z.`. +.+",
"++@+#+$+%+&+*+=+=+=+=+-+;+>+,+'+)+!+~+{+]+^+/+(+_+:+<+[+=.}+|+1+",
"2+3+4+5+6+7+8+=+=+=+=+=+=+9+0+a+b+c+d+e+f+g+h+i+j+k+l+m+n+o+p+q+",
"r+s+t+u+v+w+x+y+z+=+=+A+B+C+=+D+E+F+G+H+I+J+K+L+M+N+O+P+Q+R+S+T+",
"U+V+W+X+Y+Z+`+ @.@+@=+@@#@$@%@=+&@*@=@-@;@>@,@'@)@!@~@{@]@^@/@(@",
"_@:@<@[@}@|@1@2@3@4@=+5@6@7@8@9@0@a@=+b@c@d@e@f@g@h@i@j@k@l@m@n@",
"o@p@q@r@s@t@u@=+v@w@x@y@z@A@B@=+C@D@=+=+E@F@G@H@I@J@K@L@M@N@O@P@",
"Q@R@S@T@U@V@W@=+=+X@Y@Z@`@ #.#+#z@=+=+=+=+@###$#%#&#*#=#-#;#>#,#",
"'#)#!#~#{#]#^#=+/#(#_#:#<#[#}#|#1#=+=+=+2#3#4#5#6#7#8#9#0#a#b#c#",
"d#e#f#g#h#i#j#k#l#m#n#o#p#q#r#s#t#=+=+u#v#w#4#x#y#z#A#B#C#D#E#F#",
"d#e#f#g#h#i#G#H#m#+@I#J#=+K#L#M#N#O#P#Q#R#w#4#x#S#T#U#V#W#X#Y#Z#",
"'#)#!#`# $.$+$=+=+=+=+=+=+=+@$#$$$%$&$*$=$-$4#;$>$,$'$)$!$~${$]$",
"Q@R@^$/$($_$:$=+=+=+=+=+=+<$[$}$|$1$2$3$4$4#5$6$7$8$9$U@0$a$b$c$",
"o@d$)#f#`#e$f$=+=+=+=+B@g$h$i$j$k$l$m$n$o$##p$q$r$s$t$C#u$v$w$x$",
"_@y$z$!#g#A$ #B$C$D$E$-$3#F$G$H$I$J$K$L$5$G@M$N$O$P$Q$R$S$k+T$U$",
"U+V$W$X$Y$Z$`$ %`#3#.%+%@%#%$%%%&%*%=%-%;%>%,%'%)%!%~%{%]%^%/%(%",
"_%:%<%[%}%|%1%h$2%3%4%5%6%7%=+8%9%0%a%b%c%c%d%}%e%f%g%h%=+i%i#j%",
"k%_%l%m%n%o%p%<%q%r%s%t%u%v%w%x%y%z%A%B%C%D%E%F%G%H%I%J%K%L%M%N%",
"O%P%Q%R%S%T%U%V%W%X%Y%Z%`% &.&+&@&#&m%$&%&&&*&=&-&;&>&Y%,&p%'&O%",
")&k%!&~&{&]&^&/&(&_&:&<&[&}&|&1&2&3&-$4&5&6&7&8&9&0&a&b&c&d&e&)&",
"f&_@g&h&i&j&k&l&j&m&n&o&p&e@q&r&s&t&u&v&w&x&c%y&z&A&B&C&D&E&F&G&",
"H&I&($J&3#K&h$Q#L&M&N&O&P&Q&R&M&P&S&T&U&V&V&W&X&Y&Z&`& *.*+*@*w ",
"v { #*9 $*a %*&***=*-*;*-*H >*,*>*-*'*j%)*!*~*N%{*]*^*/*(*_*:*<*",
". ~ 5 2 6 7 8 9 | 0 a b [*}*|*1*2*e }*[*3*a 0 | 9 4*5*6*7*8*9*u ",
"0*! ~ # # % { ] ^ / ( _ : < [ | | [ < : _ ( / ^ ] * a*b*c*d*e*0*",
"  f*g*! @ # # $ $ % & * = - ; > > ; - = * & % $ $ # # h*! i*'   "};
